<mxfile host="app.diagrams.net" modified="2024-06-14T11:59:54.032Z" agent="Mozilla/5.0 (X11; Linux x86_64; rv:126.0) Gecko/20100101 Firefox/126.0" etag="Cg6HUlQxxsHHjDrwayaQ" version="24.5.4" type="device">
  <diagram name="Seite-1" id="4qU_Vc_wmeTwzjHGeIMB">
    <mxGraphModel dx="1434" dy="764" grid="1" gridSize="10" guides="1" tooltips="1" connect="1" arrows="1" fold="1" page="1" pageScale="1" pageWidth="827" pageHeight="1169" math="0" shadow="0">
      <root>
        <mxCell id="0" />
        <mxCell id="1" parent="0" />
        <mxCell id="7xaUz0W__pk1_LDY4TNP-191" value="" style="endArrow=none;html=1;rounded=0;fillColor=#f5f5f5;strokeColor=#FF0000;strokeWidth=3;exitX=0.615;exitY=-0.002;exitDx=0;exitDy=0;exitPerimeter=0;" edge="1" parent="1" source="7xaUz0W__pk1_LDY4TNP-192">
          <mxGeometry width="50" height="50" relative="1" as="geometry">
            <mxPoint x="540" y="659" as="sourcePoint" />
            <mxPoint x="540" y="434" as="targetPoint" />
          </mxGeometry>
        </mxCell>
        <mxCell id="7xaUz0W__pk1_LDY4TNP-42" value="" style="rounded=0;whiteSpace=wrap;html=1;fillColor=#f5f5f5;strokeColor=none;fontColor=#333333;movable=1;resizable=1;rotatable=1;deletable=1;editable=1;locked=0;connectable=1;" vertex="1" parent="1">
          <mxGeometry x="400" y="160" width="300" height="260" as="geometry" />
        </mxCell>
        <mxCell id="7xaUz0W__pk1_LDY4TNP-41" value="" style="rounded=0;whiteSpace=wrap;html=1;fillColor=#fff2cc;strokeColor=none;movable=1;resizable=1;rotatable=1;deletable=1;editable=1;locked=0;connectable=1;" vertex="1" parent="1">
          <mxGeometry x="100" y="160" width="300" height="260" as="geometry" />
        </mxCell>
        <mxCell id="7xaUz0W__pk1_LDY4TNP-165" value="" style="group;rotation=90;" vertex="1" connectable="0" parent="1">
          <mxGeometry x="348" y="261" width="135" height="80" as="geometry" />
        </mxCell>
        <mxCell id="7xaUz0W__pk1_LDY4TNP-166" value="" style="rounded=0;whiteSpace=wrap;html=1;rotation=90;" vertex="1" parent="7xaUz0W__pk1_LDY4TNP-165">
          <mxGeometry x="62" y="13" width="10" height="10" as="geometry" />
        </mxCell>
        <mxCell id="7xaUz0W__pk1_LDY4TNP-167" value="" style="rounded=0;whiteSpace=wrap;html=1;rotation=90;" vertex="1" parent="7xaUz0W__pk1_LDY4TNP-165">
          <mxGeometry x="36" y="13" width="10" height="10" as="geometry" />
        </mxCell>
        <mxCell id="7xaUz0W__pk1_LDY4TNP-168" value="" style="rounded=0;whiteSpace=wrap;html=1;rotation=90;" vertex="1" parent="7xaUz0W__pk1_LDY4TNP-165">
          <mxGeometry x="62" y="-27" width="10" height="10" as="geometry" />
        </mxCell>
        <mxCell id="7xaUz0W__pk1_LDY4TNP-169" value="" style="rounded=0;whiteSpace=wrap;html=1;rotation=90;" vertex="1" parent="7xaUz0W__pk1_LDY4TNP-165">
          <mxGeometry x="36" y="-27" width="10" height="10" as="geometry" />
        </mxCell>
        <mxCell id="7xaUz0W__pk1_LDY4TNP-170" value="" style="rounded=0;whiteSpace=wrap;html=1;rotation=90;" vertex="1" parent="7xaUz0W__pk1_LDY4TNP-165">
          <mxGeometry x="33" y="-27" width="40" height="50" as="geometry" />
        </mxCell>
        <mxCell id="7xaUz0W__pk1_LDY4TNP-171" value="" style="rounded=0;whiteSpace=wrap;html=1;rotation=90;" vertex="1" parent="7xaUz0W__pk1_LDY4TNP-165">
          <mxGeometry x="88" y="-27" width="10" height="30" as="geometry" />
        </mxCell>
        <mxCell id="7xaUz0W__pk1_LDY4TNP-172" value="" style="rounded=0;whiteSpace=wrap;html=1;rotation=90;" vertex="1" parent="7xaUz0W__pk1_LDY4TNP-165">
          <mxGeometry x="88" y="-7" width="10" height="30" as="geometry" />
        </mxCell>
        <mxCell id="7xaUz0W__pk1_LDY4TNP-186" value="EPAL" style="rounded=0;whiteSpace=wrap;html=1;" vertex="1" parent="7xaUz0W__pk1_LDY4TNP-165">
          <mxGeometry x="80" y="-32" width="40" height="60" as="geometry" />
        </mxCell>
        <mxCell id="7xaUz0W__pk1_LDY4TNP-1" value="" style="endArrow=classic;html=1;rounded=0;strokeWidth=2;" edge="1" parent="1">
          <mxGeometry width="50" height="50" relative="1" as="geometry">
            <mxPoint x="100" y="71" as="sourcePoint" />
            <mxPoint x="800" y="71" as="targetPoint" />
          </mxGeometry>
        </mxCell>
        <mxCell id="7xaUz0W__pk1_LDY4TNP-2" value="" style="endArrow=classic;html=1;rounded=0;strokeWidth=2;" edge="1" parent="1">
          <mxGeometry width="50" height="50" relative="1" as="geometry">
            <mxPoint x="100" y="100" as="sourcePoint" />
            <mxPoint x="100" y="30" as="targetPoint" />
          </mxGeometry>
        </mxCell>
        <mxCell id="7xaUz0W__pk1_LDY4TNP-4" value="&lt;div&gt;velocity (m/s)&lt;/div&gt;&lt;div&gt;of the forklift&lt;br&gt;&lt;/div&gt;" style="text;html=1;align=left;verticalAlign=middle;whiteSpace=wrap;rounded=0;" vertex="1" parent="1">
          <mxGeometry x="100" width="90" height="30" as="geometry" />
        </mxCell>
        <mxCell id="7xaUz0W__pk1_LDY4TNP-5" value="&lt;div&gt;time (s)&lt;br&gt;&lt;/div&gt;" style="text;html=1;align=left;verticalAlign=middle;whiteSpace=wrap;rounded=0;" vertex="1" parent="1">
          <mxGeometry x="770" y="81" width="50" height="18" as="geometry" />
        </mxCell>
        <mxCell id="7xaUz0W__pk1_LDY4TNP-6" value="" style="endArrow=none;html=1;rounded=0;" edge="1" parent="1">
          <mxGeometry width="50" height="50" relative="1" as="geometry">
            <mxPoint x="180" y="71" as="sourcePoint" />
            <mxPoint x="240" y="11" as="targetPoint" />
          </mxGeometry>
        </mxCell>
        <mxCell id="7xaUz0W__pk1_LDY4TNP-7" value="" style="endArrow=none;html=1;rounded=0;" edge="1" parent="1">
          <mxGeometry width="50" height="50" relative="1" as="geometry">
            <mxPoint x="240" y="11" as="sourcePoint" />
            <mxPoint x="450" y="11" as="targetPoint" />
          </mxGeometry>
        </mxCell>
        <mxCell id="7xaUz0W__pk1_LDY4TNP-8" value="" style="endArrow=none;html=1;rounded=0;" edge="1" parent="1">
          <mxGeometry width="50" height="50" relative="1" as="geometry">
            <mxPoint x="450" y="11" as="sourcePoint" />
            <mxPoint x="500" y="70" as="targetPoint" />
          </mxGeometry>
        </mxCell>
        <mxCell id="7xaUz0W__pk1_LDY4TNP-9" value="" style="endArrow=classic;html=1;rounded=0;strokeWidth=2;" edge="1" parent="1">
          <mxGeometry width="50" height="50" relative="1" as="geometry">
            <mxPoint x="100" y="420" as="sourcePoint" />
            <mxPoint x="800" y="420" as="targetPoint" />
          </mxGeometry>
        </mxCell>
        <mxCell id="7xaUz0W__pk1_LDY4TNP-10" value="" style="endArrow=classic;html=1;rounded=0;strokeWidth=2;" edge="1" parent="1">
          <mxGeometry width="50" height="50" relative="1" as="geometry">
            <mxPoint x="100" y="420" as="sourcePoint" />
            <mxPoint x="100" y="140" as="targetPoint" />
          </mxGeometry>
        </mxCell>
        <mxCell id="7xaUz0W__pk1_LDY4TNP-18" value="" style="group;rotation=0;" vertex="1" connectable="0" parent="1">
          <mxGeometry x="120" y="325" width="135" height="80" as="geometry" />
        </mxCell>
        <mxCell id="7xaUz0W__pk1_LDY4TNP-12" value="" style="rounded=0;whiteSpace=wrap;html=1;rotation=0;" vertex="1" parent="7xaUz0W__pk1_LDY4TNP-18">
          <mxGeometry x="40" y="36" width="10" height="10" as="geometry" />
        </mxCell>
        <mxCell id="7xaUz0W__pk1_LDY4TNP-13" value="" style="rounded=0;whiteSpace=wrap;html=1;rotation=0;" vertex="1" parent="7xaUz0W__pk1_LDY4TNP-18">
          <mxGeometry x="40" y="62" width="10" height="10" as="geometry" />
        </mxCell>
        <mxCell id="7xaUz0W__pk1_LDY4TNP-14" value="" style="rounded=0;whiteSpace=wrap;html=1;rotation=0;" vertex="1" parent="7xaUz0W__pk1_LDY4TNP-18">
          <mxGeometry y="36" width="10" height="10" as="geometry" />
        </mxCell>
        <mxCell id="7xaUz0W__pk1_LDY4TNP-15" value="" style="rounded=0;whiteSpace=wrap;html=1;rotation=0;" vertex="1" parent="7xaUz0W__pk1_LDY4TNP-18">
          <mxGeometry y="62" width="10" height="10" as="geometry" />
        </mxCell>
        <mxCell id="7xaUz0W__pk1_LDY4TNP-11" value="" style="rounded=0;whiteSpace=wrap;html=1;rotation=0;" vertex="1" parent="7xaUz0W__pk1_LDY4TNP-18">
          <mxGeometry x="5" y="30" width="40" height="50" as="geometry" />
        </mxCell>
        <mxCell id="7xaUz0W__pk1_LDY4TNP-16" value="" style="rounded=0;whiteSpace=wrap;html=1;rotation=0;" vertex="1" parent="7xaUz0W__pk1_LDY4TNP-18">
          <mxGeometry x="10" width="10" height="30" as="geometry" />
        </mxCell>
        <mxCell id="7xaUz0W__pk1_LDY4TNP-17" value="" style="rounded=0;whiteSpace=wrap;html=1;rotation=0;" vertex="1" parent="7xaUz0W__pk1_LDY4TNP-18">
          <mxGeometry x="30" width="10" height="30" as="geometry" />
        </mxCell>
        <mxCell id="7xaUz0W__pk1_LDY4TNP-77" value="X &amp;nbsp; &amp;nbsp; &amp;nbsp;&amp;nbsp; t=0...2" style="text;html=1;align=left;verticalAlign=middle;whiteSpace=wrap;rounded=0;fontColor=#FF0000;" vertex="1" parent="7xaUz0W__pk1_LDY4TNP-18">
          <mxGeometry x="18.5" y="42" width="100" height="30" as="geometry" />
        </mxCell>
        <mxCell id="7xaUz0W__pk1_LDY4TNP-187" value="EPAL" style="rounded=0;whiteSpace=wrap;html=1;rotation=-90;" vertex="1" parent="7xaUz0W__pk1_LDY4TNP-18">
          <mxGeometry x="5" y="-23" width="40" height="60" as="geometry" />
        </mxCell>
        <mxCell id="7xaUz0W__pk1_LDY4TNP-20" value="y" style="text;html=1;align=left;verticalAlign=middle;whiteSpace=wrap;rounded=0;" vertex="1" parent="1">
          <mxGeometry x="100" y="120" width="90" height="30" as="geometry" />
        </mxCell>
        <mxCell id="7xaUz0W__pk1_LDY4TNP-21" value="x" style="text;html=1;align=left;verticalAlign=middle;whiteSpace=wrap;rounded=0;" vertex="1" parent="1">
          <mxGeometry x="787" y="395" width="33" height="20" as="geometry" />
        </mxCell>
        <mxCell id="7xaUz0W__pk1_LDY4TNP-22" value="" style="endArrow=classic;html=1;rounded=0;strokeWidth=2;" edge="1" parent="1">
          <mxGeometry width="50" height="50" relative="1" as="geometry">
            <mxPoint x="100" y="600" as="sourcePoint" />
            <mxPoint x="800" y="600" as="targetPoint" />
          </mxGeometry>
        </mxCell>
        <mxCell id="7xaUz0W__pk1_LDY4TNP-40" value="forkl_veh" style="rounded=0;whiteSpace=wrap;html=1;fontFamily=Helvetica;align=left;fillColor=#dae8fc;strokeColor=#6c8ebf;fontSize=11;" vertex="1" parent="1">
          <mxGeometry x="110" y="450" width="430" height="20" as="geometry" />
        </mxCell>
        <mxCell id="7xaUz0W__pk1_LDY4TNP-43" value="Linoleum flooring" style="text;html=1;align=center;verticalAlign=middle;whiteSpace=wrap;rounded=0;fillColor=#ffe6cc;strokeColor=none;" vertex="1" parent="1">
          <mxGeometry x="300" y="160" width="100" height="20" as="geometry" />
        </mxCell>
        <mxCell id="7xaUz0W__pk1_LDY4TNP-44" value="concrete floor" style="text;html=1;align=center;verticalAlign=middle;whiteSpace=wrap;rounded=0;fillColor=#eeeeee;strokeColor=none;" vertex="1" parent="1">
          <mxGeometry x="600" y="160" width="100" height="20" as="geometry" />
        </mxCell>
        <mxCell id="7xaUz0W__pk1_LDY4TNP-45" value="&lt;div&gt;time (s)&lt;br&gt;&lt;/div&gt;" style="text;html=1;align=left;verticalAlign=middle;whiteSpace=wrap;rounded=0;" vertex="1" parent="1">
          <mxGeometry x="770" y="606" width="50" height="18" as="geometry" />
        </mxCell>
        <mxCell id="7xaUz0W__pk1_LDY4TNP-46" value="1" style="text;html=1;align=left;verticalAlign=middle;whiteSpace=wrap;rounded=0;" vertex="1" parent="1">
          <mxGeometry x="140" y="610" width="30" height="10" as="geometry" />
        </mxCell>
        <mxCell id="7xaUz0W__pk1_LDY4TNP-47" value="2" style="text;html=1;align=left;verticalAlign=middle;whiteSpace=wrap;rounded=0;" vertex="1" parent="1">
          <mxGeometry x="180" y="610" width="30" height="10" as="geometry" />
        </mxCell>
        <mxCell id="7xaUz0W__pk1_LDY4TNP-48" value="3" style="text;html=1;align=left;verticalAlign=middle;whiteSpace=wrap;rounded=0;" vertex="1" parent="1">
          <mxGeometry x="220" y="610" width="30" height="10" as="geometry" />
        </mxCell>
        <mxCell id="7xaUz0W__pk1_LDY4TNP-49" value="4" style="text;html=1;align=left;verticalAlign=middle;whiteSpace=wrap;rounded=0;" vertex="1" parent="1">
          <mxGeometry x="260" y="610" width="30" height="10" as="geometry" />
        </mxCell>
        <mxCell id="7xaUz0W__pk1_LDY4TNP-50" value="5" style="text;html=1;align=left;verticalAlign=middle;whiteSpace=wrap;rounded=0;" vertex="1" parent="1">
          <mxGeometry x="300" y="610" width="30" height="10" as="geometry" />
        </mxCell>
        <mxCell id="7xaUz0W__pk1_LDY4TNP-51" value="6" style="text;html=1;align=left;verticalAlign=middle;whiteSpace=wrap;rounded=0;" vertex="1" parent="1">
          <mxGeometry x="340" y="610" width="30" height="10" as="geometry" />
        </mxCell>
        <mxCell id="7xaUz0W__pk1_LDY4TNP-52" value="7" style="text;html=1;align=left;verticalAlign=middle;whiteSpace=wrap;rounded=0;" vertex="1" parent="1">
          <mxGeometry x="380" y="610" width="30" height="10" as="geometry" />
        </mxCell>
        <mxCell id="7xaUz0W__pk1_LDY4TNP-53" value="8" style="text;html=1;align=left;verticalAlign=middle;whiteSpace=wrap;rounded=0;" vertex="1" parent="1">
          <mxGeometry x="420" y="610" width="30" height="10" as="geometry" />
        </mxCell>
        <mxCell id="7xaUz0W__pk1_LDY4TNP-54" value="9" style="text;html=1;align=left;verticalAlign=middle;whiteSpace=wrap;rounded=0;" vertex="1" parent="1">
          <mxGeometry x="460" y="610" width="30" height="10" as="geometry" />
        </mxCell>
        <mxCell id="7xaUz0W__pk1_LDY4TNP-55" value="10" style="text;html=1;align=left;verticalAlign=middle;whiteSpace=wrap;rounded=0;" vertex="1" parent="1">
          <mxGeometry x="500" y="610" width="30" height="10" as="geometry" />
        </mxCell>
        <mxCell id="7xaUz0W__pk1_LDY4TNP-56" value="11" style="text;html=1;align=left;verticalAlign=middle;whiteSpace=wrap;rounded=0;" vertex="1" parent="1">
          <mxGeometry x="540" y="610" width="30" height="10" as="geometry" />
        </mxCell>
        <mxCell id="7xaUz0W__pk1_LDY4TNP-57" value="12" style="text;html=1;align=left;verticalAlign=middle;whiteSpace=wrap;rounded=0;" vertex="1" parent="1">
          <mxGeometry x="580" y="610" width="30" height="10" as="geometry" />
        </mxCell>
        <mxCell id="7xaUz0W__pk1_LDY4TNP-58" value="13" style="text;html=1;align=left;verticalAlign=middle;whiteSpace=wrap;rounded=0;" vertex="1" parent="1">
          <mxGeometry x="620" y="610" width="30" height="10" as="geometry" />
        </mxCell>
        <mxCell id="7xaUz0W__pk1_LDY4TNP-59" value="14" style="text;html=1;align=left;verticalAlign=middle;whiteSpace=wrap;rounded=0;" vertex="1" parent="1">
          <mxGeometry x="660" y="610" width="30" height="10" as="geometry" />
        </mxCell>
        <mxCell id="7xaUz0W__pk1_LDY4TNP-60" value="15" style="text;html=1;align=left;verticalAlign=middle;whiteSpace=wrap;rounded=0;" vertex="1" parent="1">
          <mxGeometry x="700" y="610" width="30" height="10" as="geometry" />
        </mxCell>
        <mxCell id="7xaUz0W__pk1_LDY4TNP-61" value="16" style="text;html=1;align=left;verticalAlign=middle;whiteSpace=wrap;rounded=0;" vertex="1" parent="1">
          <mxGeometry x="740" y="610" width="30" height="10" as="geometry" />
        </mxCell>
        <mxCell id="7xaUz0W__pk1_LDY4TNP-62" value="" style="endArrow=classic;html=1;rounded=0;strokeWidth=2;" edge="1" parent="1">
          <mxGeometry width="50" height="50" relative="1" as="geometry">
            <mxPoint x="100" y="600" as="sourcePoint" />
            <mxPoint x="100" y="430" as="targetPoint" />
          </mxGeometry>
        </mxCell>
        <mxCell id="7xaUz0W__pk1_LDY4TNP-63" value="vehicle type" style="text;html=1;align=right;verticalAlign=middle;whiteSpace=wrap;rounded=0;" vertex="1" parent="1">
          <mxGeometry y="450" width="90" height="20" as="geometry" />
        </mxCell>
        <mxCell id="7xaUz0W__pk1_LDY4TNP-64" value="lino_flo" style="rounded=0;whiteSpace=wrap;html=1;fontFamily=Helvetica;align=left;fillColor=#e1d5e7;strokeColor=#9673a6;fontSize=11;" vertex="1" parent="1">
          <mxGeometry x="110" y="480" width="270" height="20" as="geometry" />
        </mxCell>
        <mxCell id="7xaUz0W__pk1_LDY4TNP-65" value="floor type" style="text;html=1;align=right;verticalAlign=middle;whiteSpace=wrap;rounded=0;" vertex="1" parent="1">
          <mxGeometry y="480" width="90" height="20" as="geometry" />
        </mxCell>
        <mxCell id="7xaUz0W__pk1_LDY4TNP-66" value="idl_mov" style="rounded=0;whiteSpace=wrap;html=1;fontFamily=Helvetica;align=left;fillColor=#f8cecc;strokeColor=#b85450;fontSize=11;" vertex="1" parent="1">
          <mxGeometry x="110" y="510" width="70" height="20" as="geometry" />
        </mxCell>
        <mxCell id="7xaUz0W__pk1_LDY4TNP-68" value="forw_dir" style="rounded=0;whiteSpace=wrap;html=1;fontFamily=Helvetica;align=left;fillColor=#ffe6cc;strokeColor=#d79b00;fontSize=11;" vertex="1" parent="1">
          <mxGeometry x="180" y="540" width="80" height="20" as="geometry" />
        </mxCell>
        <mxCell id="7xaUz0W__pk1_LDY4TNP-69" value="movement type" style="text;html=1;align=right;verticalAlign=middle;whiteSpace=wrap;rounded=0;" vertex="1" parent="1">
          <mxGeometry y="510" width="90" height="20" as="geometry" />
        </mxCell>
        <mxCell id="7xaUz0W__pk1_LDY4TNP-71" value="direction type" style="text;html=1;align=right;verticalAlign=middle;whiteSpace=wrap;rounded=0;" vertex="1" parent="1">
          <mxGeometry y="540" width="90" height="20" as="geometry" />
        </mxCell>
        <mxCell id="7xaUz0W__pk1_LDY4TNP-75" value="short events" style="text;html=1;align=right;verticalAlign=middle;whiteSpace=wrap;rounded=0;" vertex="1" parent="1">
          <mxGeometry y="570" width="90" height="20" as="geometry" />
        </mxCell>
        <mxCell id="7xaUz0W__pk1_LDY4TNP-79" value="" style="endArrow=none;html=1;rounded=0;exitX=0;exitY=0.25;exitDx=0;exitDy=0;" edge="1" parent="1">
          <mxGeometry width="50" height="50" relative="1" as="geometry">
            <mxPoint x="140" y="613" as="sourcePoint" />
            <mxPoint x="140" y="600" as="targetPoint" />
          </mxGeometry>
        </mxCell>
        <mxCell id="7xaUz0W__pk1_LDY4TNP-80" value="" style="endArrow=none;html=1;rounded=0;exitX=0;exitY=0.25;exitDx=0;exitDy=0;" edge="1" parent="1">
          <mxGeometry width="50" height="50" relative="1" as="geometry">
            <mxPoint x="180" y="613" as="sourcePoint" />
            <mxPoint x="180" y="600" as="targetPoint" />
          </mxGeometry>
        </mxCell>
        <mxCell id="7xaUz0W__pk1_LDY4TNP-81" value="" style="endArrow=none;html=1;rounded=0;exitX=0;exitY=0.25;exitDx=0;exitDy=0;" edge="1" parent="1">
          <mxGeometry width="50" height="50" relative="1" as="geometry">
            <mxPoint x="220" y="614" as="sourcePoint" />
            <mxPoint x="220" y="601" as="targetPoint" />
          </mxGeometry>
        </mxCell>
        <mxCell id="7xaUz0W__pk1_LDY4TNP-82" value="" style="endArrow=none;html=1;rounded=0;exitX=0;exitY=0.25;exitDx=0;exitDy=0;" edge="1" parent="1">
          <mxGeometry width="50" height="50" relative="1" as="geometry">
            <mxPoint x="260" y="614" as="sourcePoint" />
            <mxPoint x="260" y="601" as="targetPoint" />
          </mxGeometry>
        </mxCell>
        <mxCell id="7xaUz0W__pk1_LDY4TNP-87" value="" style="endArrow=none;html=1;rounded=0;exitX=0;exitY=0.25;exitDx=0;exitDy=0;" edge="1" parent="1">
          <mxGeometry width="50" height="50" relative="1" as="geometry">
            <mxPoint x="300" y="614" as="sourcePoint" />
            <mxPoint x="300" y="601" as="targetPoint" />
          </mxGeometry>
        </mxCell>
        <mxCell id="7xaUz0W__pk1_LDY4TNP-88" value="" style="endArrow=none;html=1;rounded=0;exitX=0;exitY=0.25;exitDx=0;exitDy=0;" edge="1" parent="1">
          <mxGeometry width="50" height="50" relative="1" as="geometry">
            <mxPoint x="340" y="614" as="sourcePoint" />
            <mxPoint x="340" y="601" as="targetPoint" />
          </mxGeometry>
        </mxCell>
        <mxCell id="7xaUz0W__pk1_LDY4TNP-89" value="" style="endArrow=none;html=1;rounded=0;exitX=0;exitY=0.25;exitDx=0;exitDy=0;" edge="1" parent="1">
          <mxGeometry width="50" height="50" relative="1" as="geometry">
            <mxPoint x="380" y="614" as="sourcePoint" />
            <mxPoint x="380" y="601" as="targetPoint" />
          </mxGeometry>
        </mxCell>
        <mxCell id="7xaUz0W__pk1_LDY4TNP-90" value="" style="endArrow=none;html=1;rounded=0;exitX=0;exitY=0.25;exitDx=0;exitDy=0;" edge="1" parent="1">
          <mxGeometry width="50" height="50" relative="1" as="geometry">
            <mxPoint x="420" y="614" as="sourcePoint" />
            <mxPoint x="420" y="601" as="targetPoint" />
          </mxGeometry>
        </mxCell>
        <mxCell id="7xaUz0W__pk1_LDY4TNP-91" value="" style="endArrow=none;html=1;rounded=0;exitX=0;exitY=0.25;exitDx=0;exitDy=0;" edge="1" parent="1">
          <mxGeometry width="50" height="50" relative="1" as="geometry">
            <mxPoint x="460" y="614" as="sourcePoint" />
            <mxPoint x="460" y="601" as="targetPoint" />
          </mxGeometry>
        </mxCell>
        <mxCell id="7xaUz0W__pk1_LDY4TNP-92" value="" style="endArrow=none;html=1;rounded=0;exitX=0;exitY=0.25;exitDx=0;exitDy=0;" edge="1" parent="1">
          <mxGeometry width="50" height="50" relative="1" as="geometry">
            <mxPoint x="500" y="614" as="sourcePoint" />
            <mxPoint x="500" y="601" as="targetPoint" />
          </mxGeometry>
        </mxCell>
        <mxCell id="7xaUz0W__pk1_LDY4TNP-93" value="" style="endArrow=none;html=1;rounded=0;exitX=0;exitY=0.25;exitDx=0;exitDy=0;" edge="1" parent="1">
          <mxGeometry width="50" height="50" relative="1" as="geometry">
            <mxPoint x="540" y="613" as="sourcePoint" />
            <mxPoint x="540" y="600" as="targetPoint" />
          </mxGeometry>
        </mxCell>
        <mxCell id="7xaUz0W__pk1_LDY4TNP-94" value="" style="endArrow=none;html=1;rounded=0;exitX=0;exitY=0.25;exitDx=0;exitDy=0;" edge="1" parent="1">
          <mxGeometry width="50" height="50" relative="1" as="geometry">
            <mxPoint x="580" y="613" as="sourcePoint" />
            <mxPoint x="580" y="600" as="targetPoint" />
          </mxGeometry>
        </mxCell>
        <mxCell id="7xaUz0W__pk1_LDY4TNP-95" value="" style="endArrow=none;html=1;rounded=0;exitX=0;exitY=0.25;exitDx=0;exitDy=0;" edge="1" parent="1">
          <mxGeometry width="50" height="50" relative="1" as="geometry">
            <mxPoint x="620" y="613" as="sourcePoint" />
            <mxPoint x="620" y="600" as="targetPoint" />
          </mxGeometry>
        </mxCell>
        <mxCell id="7xaUz0W__pk1_LDY4TNP-96" value="" style="endArrow=none;html=1;rounded=0;exitX=0;exitY=0.25;exitDx=0;exitDy=0;" edge="1" parent="1">
          <mxGeometry width="50" height="50" relative="1" as="geometry">
            <mxPoint x="660" y="613" as="sourcePoint" />
            <mxPoint x="660" y="600" as="targetPoint" />
          </mxGeometry>
        </mxCell>
        <mxCell id="7xaUz0W__pk1_LDY4TNP-97" value="" style="endArrow=none;html=1;rounded=0;exitX=0;exitY=0.25;exitDx=0;exitDy=0;" edge="1" parent="1">
          <mxGeometry width="50" height="50" relative="1" as="geometry">
            <mxPoint x="700" y="613" as="sourcePoint" />
            <mxPoint x="700" y="600" as="targetPoint" />
          </mxGeometry>
        </mxCell>
        <mxCell id="7xaUz0W__pk1_LDY4TNP-98" value="" style="endArrow=none;html=1;rounded=0;exitX=0;exitY=0.25;exitDx=0;exitDy=0;" edge="1" parent="1">
          <mxGeometry width="50" height="50" relative="1" as="geometry">
            <mxPoint x="740" y="613" as="sourcePoint" />
            <mxPoint x="740" y="600" as="targetPoint" />
          </mxGeometry>
        </mxCell>
        <mxCell id="7xaUz0W__pk1_LDY4TNP-99" value="1" style="text;html=1;align=left;verticalAlign=middle;whiteSpace=wrap;rounded=0;" vertex="1" parent="1">
          <mxGeometry x="139" y="81" width="30" height="10" as="geometry" />
        </mxCell>
        <mxCell id="7xaUz0W__pk1_LDY4TNP-100" value="2" style="text;html=1;align=left;verticalAlign=middle;whiteSpace=wrap;rounded=0;" vertex="1" parent="1">
          <mxGeometry x="179" y="81" width="30" height="10" as="geometry" />
        </mxCell>
        <mxCell id="7xaUz0W__pk1_LDY4TNP-101" value="3" style="text;html=1;align=left;verticalAlign=middle;whiteSpace=wrap;rounded=0;" vertex="1" parent="1">
          <mxGeometry x="219" y="81" width="30" height="10" as="geometry" />
        </mxCell>
        <mxCell id="7xaUz0W__pk1_LDY4TNP-102" value="4" style="text;html=1;align=left;verticalAlign=middle;whiteSpace=wrap;rounded=0;" vertex="1" parent="1">
          <mxGeometry x="259" y="81" width="30" height="10" as="geometry" />
        </mxCell>
        <mxCell id="7xaUz0W__pk1_LDY4TNP-103" value="5" style="text;html=1;align=left;verticalAlign=middle;whiteSpace=wrap;rounded=0;" vertex="1" parent="1">
          <mxGeometry x="299" y="81" width="30" height="10" as="geometry" />
        </mxCell>
        <mxCell id="7xaUz0W__pk1_LDY4TNP-104" value="6" style="text;html=1;align=left;verticalAlign=middle;whiteSpace=wrap;rounded=0;" vertex="1" parent="1">
          <mxGeometry x="339" y="81" width="30" height="10" as="geometry" />
        </mxCell>
        <mxCell id="7xaUz0W__pk1_LDY4TNP-105" value="7" style="text;html=1;align=left;verticalAlign=middle;whiteSpace=wrap;rounded=0;" vertex="1" parent="1">
          <mxGeometry x="379" y="81" width="30" height="10" as="geometry" />
        </mxCell>
        <mxCell id="7xaUz0W__pk1_LDY4TNP-106" value="8" style="text;html=1;align=left;verticalAlign=middle;whiteSpace=wrap;rounded=0;" vertex="1" parent="1">
          <mxGeometry x="419" y="81" width="30" height="10" as="geometry" />
        </mxCell>
        <mxCell id="7xaUz0W__pk1_LDY4TNP-107" value="9" style="text;html=1;align=left;verticalAlign=middle;whiteSpace=wrap;rounded=0;" vertex="1" parent="1">
          <mxGeometry x="459" y="81" width="30" height="10" as="geometry" />
        </mxCell>
        <mxCell id="7xaUz0W__pk1_LDY4TNP-108" value="10" style="text;html=1;align=left;verticalAlign=middle;whiteSpace=wrap;rounded=0;" vertex="1" parent="1">
          <mxGeometry x="499" y="81" width="30" height="10" as="geometry" />
        </mxCell>
        <mxCell id="7xaUz0W__pk1_LDY4TNP-109" value="11" style="text;html=1;align=left;verticalAlign=middle;whiteSpace=wrap;rounded=0;" vertex="1" parent="1">
          <mxGeometry x="539" y="81" width="30" height="10" as="geometry" />
        </mxCell>
        <mxCell id="7xaUz0W__pk1_LDY4TNP-110" value="12" style="text;html=1;align=left;verticalAlign=middle;whiteSpace=wrap;rounded=0;" vertex="1" parent="1">
          <mxGeometry x="579" y="81" width="30" height="10" as="geometry" />
        </mxCell>
        <mxCell id="7xaUz0W__pk1_LDY4TNP-111" value="13" style="text;html=1;align=left;verticalAlign=middle;whiteSpace=wrap;rounded=0;" vertex="1" parent="1">
          <mxGeometry x="619" y="81" width="30" height="10" as="geometry" />
        </mxCell>
        <mxCell id="7xaUz0W__pk1_LDY4TNP-112" value="14" style="text;html=1;align=left;verticalAlign=middle;whiteSpace=wrap;rounded=0;" vertex="1" parent="1">
          <mxGeometry x="659" y="81" width="30" height="10" as="geometry" />
        </mxCell>
        <mxCell id="7xaUz0W__pk1_LDY4TNP-113" value="15" style="text;html=1;align=left;verticalAlign=middle;whiteSpace=wrap;rounded=0;" vertex="1" parent="1">
          <mxGeometry x="699" y="81" width="30" height="10" as="geometry" />
        </mxCell>
        <mxCell id="7xaUz0W__pk1_LDY4TNP-114" value="16" style="text;html=1;align=left;verticalAlign=middle;whiteSpace=wrap;rounded=0;" vertex="1" parent="1">
          <mxGeometry x="739" y="81" width="30" height="10" as="geometry" />
        </mxCell>
        <mxCell id="7xaUz0W__pk1_LDY4TNP-115" value="" style="endArrow=none;html=1;rounded=0;exitX=0;exitY=0.25;exitDx=0;exitDy=0;" edge="1" parent="1">
          <mxGeometry width="50" height="50" relative="1" as="geometry">
            <mxPoint x="139" y="84" as="sourcePoint" />
            <mxPoint x="139" y="71" as="targetPoint" />
          </mxGeometry>
        </mxCell>
        <mxCell id="7xaUz0W__pk1_LDY4TNP-116" value="" style="endArrow=none;html=1;rounded=0;exitX=0;exitY=0.25;exitDx=0;exitDy=0;" edge="1" parent="1">
          <mxGeometry width="50" height="50" relative="1" as="geometry">
            <mxPoint x="179" y="84" as="sourcePoint" />
            <mxPoint x="179" y="71" as="targetPoint" />
          </mxGeometry>
        </mxCell>
        <mxCell id="7xaUz0W__pk1_LDY4TNP-117" value="" style="endArrow=none;html=1;rounded=0;exitX=0;exitY=0.25;exitDx=0;exitDy=0;" edge="1" parent="1">
          <mxGeometry width="50" height="50" relative="1" as="geometry">
            <mxPoint x="219" y="85" as="sourcePoint" />
            <mxPoint x="219" y="72" as="targetPoint" />
          </mxGeometry>
        </mxCell>
        <mxCell id="7xaUz0W__pk1_LDY4TNP-118" value="" style="endArrow=none;html=1;rounded=0;exitX=0;exitY=0.25;exitDx=0;exitDy=0;" edge="1" parent="1">
          <mxGeometry width="50" height="50" relative="1" as="geometry">
            <mxPoint x="259" y="85" as="sourcePoint" />
            <mxPoint x="259" y="72" as="targetPoint" />
          </mxGeometry>
        </mxCell>
        <mxCell id="7xaUz0W__pk1_LDY4TNP-119" value="" style="endArrow=none;html=1;rounded=0;exitX=0;exitY=0.25;exitDx=0;exitDy=0;" edge="1" parent="1">
          <mxGeometry width="50" height="50" relative="1" as="geometry">
            <mxPoint x="299" y="85" as="sourcePoint" />
            <mxPoint x="299" y="72" as="targetPoint" />
          </mxGeometry>
        </mxCell>
        <mxCell id="7xaUz0W__pk1_LDY4TNP-120" value="" style="endArrow=none;html=1;rounded=0;exitX=0;exitY=0.25;exitDx=0;exitDy=0;" edge="1" parent="1">
          <mxGeometry width="50" height="50" relative="1" as="geometry">
            <mxPoint x="339" y="85" as="sourcePoint" />
            <mxPoint x="339" y="72" as="targetPoint" />
          </mxGeometry>
        </mxCell>
        <mxCell id="7xaUz0W__pk1_LDY4TNP-121" value="" style="endArrow=none;html=1;rounded=0;exitX=0;exitY=0.25;exitDx=0;exitDy=0;" edge="1" parent="1">
          <mxGeometry width="50" height="50" relative="1" as="geometry">
            <mxPoint x="379" y="85" as="sourcePoint" />
            <mxPoint x="379" y="72" as="targetPoint" />
          </mxGeometry>
        </mxCell>
        <mxCell id="7xaUz0W__pk1_LDY4TNP-122" value="" style="endArrow=none;html=1;rounded=0;exitX=0;exitY=0.25;exitDx=0;exitDy=0;" edge="1" parent="1">
          <mxGeometry width="50" height="50" relative="1" as="geometry">
            <mxPoint x="419" y="85" as="sourcePoint" />
            <mxPoint x="419" y="72" as="targetPoint" />
          </mxGeometry>
        </mxCell>
        <mxCell id="7xaUz0W__pk1_LDY4TNP-123" value="" style="endArrow=none;html=1;rounded=0;exitX=0;exitY=0.25;exitDx=0;exitDy=0;" edge="1" parent="1">
          <mxGeometry width="50" height="50" relative="1" as="geometry">
            <mxPoint x="459" y="85" as="sourcePoint" />
            <mxPoint x="459" y="72" as="targetPoint" />
          </mxGeometry>
        </mxCell>
        <mxCell id="7xaUz0W__pk1_LDY4TNP-124" value="" style="endArrow=none;html=1;rounded=0;exitX=0;exitY=0.25;exitDx=0;exitDy=0;" edge="1" parent="1">
          <mxGeometry width="50" height="50" relative="1" as="geometry">
            <mxPoint x="499" y="85" as="sourcePoint" />
            <mxPoint x="499" y="72" as="targetPoint" />
          </mxGeometry>
        </mxCell>
        <mxCell id="7xaUz0W__pk1_LDY4TNP-125" value="" style="endArrow=none;html=1;rounded=0;exitX=0;exitY=0.25;exitDx=0;exitDy=0;" edge="1" parent="1">
          <mxGeometry width="50" height="50" relative="1" as="geometry">
            <mxPoint x="539" y="84" as="sourcePoint" />
            <mxPoint x="539" y="71" as="targetPoint" />
          </mxGeometry>
        </mxCell>
        <mxCell id="7xaUz0W__pk1_LDY4TNP-126" value="" style="endArrow=none;html=1;rounded=0;exitX=0;exitY=0.25;exitDx=0;exitDy=0;" edge="1" parent="1">
          <mxGeometry width="50" height="50" relative="1" as="geometry">
            <mxPoint x="579" y="84" as="sourcePoint" />
            <mxPoint x="579" y="71" as="targetPoint" />
          </mxGeometry>
        </mxCell>
        <mxCell id="7xaUz0W__pk1_LDY4TNP-127" value="" style="endArrow=none;html=1;rounded=0;exitX=0;exitY=0.25;exitDx=0;exitDy=0;" edge="1" parent="1">
          <mxGeometry width="50" height="50" relative="1" as="geometry">
            <mxPoint x="619" y="84" as="sourcePoint" />
            <mxPoint x="619" y="71" as="targetPoint" />
          </mxGeometry>
        </mxCell>
        <mxCell id="7xaUz0W__pk1_LDY4TNP-128" value="" style="endArrow=none;html=1;rounded=0;exitX=0;exitY=0.25;exitDx=0;exitDy=0;" edge="1" parent="1">
          <mxGeometry width="50" height="50" relative="1" as="geometry">
            <mxPoint x="659" y="84" as="sourcePoint" />
            <mxPoint x="659" y="71" as="targetPoint" />
          </mxGeometry>
        </mxCell>
        <mxCell id="7xaUz0W__pk1_LDY4TNP-129" value="" style="endArrow=none;html=1;rounded=0;exitX=0;exitY=0.25;exitDx=0;exitDy=0;" edge="1" parent="1">
          <mxGeometry width="50" height="50" relative="1" as="geometry">
            <mxPoint x="699" y="84" as="sourcePoint" />
            <mxPoint x="699" y="71" as="targetPoint" />
          </mxGeometry>
        </mxCell>
        <mxCell id="7xaUz0W__pk1_LDY4TNP-130" value="" style="endArrow=none;html=1;rounded=0;exitX=0;exitY=0.25;exitDx=0;exitDy=0;" edge="1" parent="1">
          <mxGeometry width="50" height="50" relative="1" as="geometry">
            <mxPoint x="739" y="84" as="sourcePoint" />
            <mxPoint x="739" y="71" as="targetPoint" />
          </mxGeometry>
        </mxCell>
        <mxCell id="7xaUz0W__pk1_LDY4TNP-132" value="conc_flo" style="rounded=0;whiteSpace=wrap;html=1;fontFamily=Helvetica;align=left;fillColor=#e1d5e7;strokeColor=#9673a6;fontSize=11;" vertex="1" parent="1">
          <mxGeometry x="420" y="480" width="120" height="20" as="geometry" />
        </mxCell>
        <mxCell id="7xaUz0W__pk1_LDY4TNP-133" value="acc_mov" style="rounded=0;whiteSpace=wrap;html=1;fontFamily=Helvetica;align=left;fillColor=#f8cecc;strokeColor=#b85450;fontSize=11;" vertex="1" parent="1">
          <mxGeometry x="179" y="510" width="70" height="20" as="geometry" />
        </mxCell>
        <mxCell id="7xaUz0W__pk1_LDY4TNP-134" value="crus_mov" style="rounded=0;whiteSpace=wrap;html=1;fontFamily=Helvetica;align=left;fillColor=#f8cecc;strokeColor=#b85450;fontSize=11;" vertex="1" parent="1">
          <mxGeometry x="249" y="510" width="201" height="20" as="geometry" />
        </mxCell>
        <mxCell id="7xaUz0W__pk1_LDY4TNP-135" value="dec_mov" style="rounded=0;whiteSpace=wrap;html=1;fontFamily=Helvetica;align=left;fillColor=#f8cecc;strokeColor=#b85450;fontSize=11;" vertex="1" parent="1">
          <mxGeometry x="450" y="510" width="50" height="20" as="geometry" />
        </mxCell>
        <mxCell id="7xaUz0W__pk1_LDY4TNP-136" value="flo-chng_evt" style="rounded=0;html=1;fontFamily=Helvetica;align=left;fillColor=#d5e8d4;strokeColor=#82b366;fontSize=11;" vertex="1" parent="1">
          <mxGeometry x="379" y="570" width="41" height="20" as="geometry" />
        </mxCell>
        <mxCell id="7xaUz0W__pk1_LDY4TNP-137" value="" style="endArrow=none;html=1;rounded=0;" edge="1" parent="1">
          <mxGeometry width="50" height="50" relative="1" as="geometry">
            <mxPoint x="620" y="40" as="sourcePoint" />
            <mxPoint x="800" y="40" as="targetPoint" />
          </mxGeometry>
        </mxCell>
        <mxCell id="7xaUz0W__pk1_LDY4TNP-138" value="idl_mov" style="rounded=0;whiteSpace=wrap;html=1;fontFamily=Helvetica;align=left;fillColor=#f8cecc;strokeColor=#b85450;fontSize=11;" vertex="1" parent="1">
          <mxGeometry x="500" y="510" width="40" height="20" as="geometry" />
        </mxCell>
        <mxCell id="7xaUz0W__pk1_LDY4TNP-139" value="" style="endArrow=none;html=1;rounded=0;fillColor=#f8cecc;strokeColor=#FF0000;dashed=1;startArrow=none;startFill=0;endSize=7;targetPerimeterSpacing=0;sourcePerimeterSpacing=-1;endFill=0;" edge="1" parent="1">
          <mxGeometry width="50" height="50" relative="1" as="geometry">
            <mxPoint x="144.66" y="379" as="sourcePoint" />
            <mxPoint x="144.66" y="299" as="targetPoint" />
          </mxGeometry>
        </mxCell>
        <mxCell id="7xaUz0W__pk1_LDY4TNP-140" value="X &amp;nbsp; &amp;nbsp; &amp;nbsp;&amp;nbsp; t=4" style="text;html=1;align=left;verticalAlign=middle;whiteSpace=wrap;rounded=0;fontColor=#FF0000;" vertex="1" parent="1">
          <mxGeometry x="139" y="286" width="100" height="30" as="geometry" />
        </mxCell>
        <mxCell id="7xaUz0W__pk1_LDY4TNP-141" value="X &amp;nbsp; &amp;nbsp; &amp;nbsp;&amp;nbsp; t=3" style="text;html=1;align=left;verticalAlign=middle;whiteSpace=wrap;rounded=0;fontColor=#FF0000;" vertex="1" parent="1">
          <mxGeometry x="139" y="325" width="100" height="30" as="geometry" />
        </mxCell>
        <mxCell id="7xaUz0W__pk1_LDY4TNP-152" value="" style="curved=1;endArrow=classic;html=1;rounded=0;dashed=1;strokeColor=#FF0000;endFill=1;" edge="1" parent="1">
          <mxGeometry width="50" height="50" relative="1" as="geometry">
            <mxPoint x="145" y="299" as="sourcePoint" />
            <mxPoint x="185" y="259" as="targetPoint" />
            <Array as="points">
              <mxPoint x="145" y="259" />
            </Array>
          </mxGeometry>
        </mxCell>
        <mxCell id="7xaUz0W__pk1_LDY4TNP-153" value="&lt;div&gt; t=6&lt;/div&gt;&lt;div&gt;X&lt;/div&gt;" style="text;html=1;align=center;verticalAlign=middle;whiteSpace=wrap;rounded=0;fontColor=#FF0000;" vertex="1" parent="1">
          <mxGeometry x="176" y="239" width="20" height="30" as="geometry" />
        </mxCell>
        <mxCell id="7xaUz0W__pk1_LDY4TNP-155" value="clockw_dir" style="rounded=0;whiteSpace=wrap;html=1;fontFamily=Helvetica;align=left;fillColor=#ffe6cc;strokeColor=#d79b00;fontSize=11;" vertex="1" parent="1">
          <mxGeometry x="260" y="540" width="80" height="20" as="geometry" />
        </mxCell>
        <mxCell id="7xaUz0W__pk1_LDY4TNP-156" value="" style="endArrow=none;html=1;rounded=0;" edge="1" parent="1">
          <mxGeometry width="50" height="50" relative="1" as="geometry">
            <mxPoint x="540" y="71" as="sourcePoint" />
            <mxPoint x="560" y="101" as="targetPoint" />
          </mxGeometry>
        </mxCell>
        <mxCell id="7xaUz0W__pk1_LDY4TNP-157" value="" style="endArrow=none;html=1;rounded=0;" edge="1" parent="1">
          <mxGeometry width="50" height="50" relative="1" as="geometry">
            <mxPoint x="580" y="101" as="sourcePoint" />
            <mxPoint x="620" y="40" as="targetPoint" />
          </mxGeometry>
        </mxCell>
        <mxCell id="7xaUz0W__pk1_LDY4TNP-158" value="" style="endArrow=none;html=1;rounded=0;" edge="1" parent="1">
          <mxGeometry width="50" height="50" relative="1" as="geometry">
            <mxPoint x="560" y="100" as="sourcePoint" />
            <mxPoint x="580" y="100" as="targetPoint" />
          </mxGeometry>
        </mxCell>
        <mxCell id="7xaUz0W__pk1_LDY4TNP-161" value="&lt;div&gt;t=7&lt;/div&gt;&lt;div&gt;X&lt;br&gt;&lt;/div&gt;" style="text;html=1;align=center;verticalAlign=middle;whiteSpace=wrap;rounded=0;fontColor=#FF0000;" vertex="1" parent="1">
          <mxGeometry x="370" y="239" width="20" height="30" as="geometry" />
        </mxCell>
        <mxCell id="7xaUz0W__pk1_LDY4TNP-162" value="&lt;div&gt;t=8&lt;/div&gt;&lt;div&gt;X&lt;br&gt;&lt;/div&gt;" style="text;html=1;align=center;verticalAlign=middle;whiteSpace=wrap;rounded=0;fontColor=#FF0000;" vertex="1" parent="1">
          <mxGeometry x="412" y="239" width="20" height="30" as="geometry" />
        </mxCell>
        <mxCell id="7xaUz0W__pk1_LDY4TNP-174" value="" style="group;rotation=90;" vertex="1" connectable="0" parent="1">
          <mxGeometry x="470" y="261" width="135" height="80" as="geometry" />
        </mxCell>
        <mxCell id="7xaUz0W__pk1_LDY4TNP-175" value="" style="rounded=0;whiteSpace=wrap;html=1;rotation=90;" vertex="1" parent="7xaUz0W__pk1_LDY4TNP-174">
          <mxGeometry x="62" y="13" width="10" height="10" as="geometry" />
        </mxCell>
        <mxCell id="7xaUz0W__pk1_LDY4TNP-176" value="" style="rounded=0;whiteSpace=wrap;html=1;rotation=90;" vertex="1" parent="7xaUz0W__pk1_LDY4TNP-174">
          <mxGeometry x="36" y="13" width="10" height="10" as="geometry" />
        </mxCell>
        <mxCell id="7xaUz0W__pk1_LDY4TNP-177" value="" style="rounded=0;whiteSpace=wrap;html=1;rotation=90;" vertex="1" parent="7xaUz0W__pk1_LDY4TNP-174">
          <mxGeometry x="62" y="-27" width="10" height="10" as="geometry" />
        </mxCell>
        <mxCell id="7xaUz0W__pk1_LDY4TNP-178" value="" style="rounded=0;whiteSpace=wrap;html=1;rotation=90;" vertex="1" parent="7xaUz0W__pk1_LDY4TNP-174">
          <mxGeometry x="36" y="-27" width="10" height="10" as="geometry" />
        </mxCell>
        <mxCell id="7xaUz0W__pk1_LDY4TNP-179" value="" style="rounded=0;whiteSpace=wrap;html=1;rotation=90;" vertex="1" parent="7xaUz0W__pk1_LDY4TNP-174">
          <mxGeometry x="33" y="-27" width="40" height="50" as="geometry" />
        </mxCell>
        <mxCell id="7xaUz0W__pk1_LDY4TNP-180" value="" style="rounded=0;whiteSpace=wrap;html=1;rotation=90;" vertex="1" parent="7xaUz0W__pk1_LDY4TNP-174">
          <mxGeometry x="88" y="-27" width="10" height="30" as="geometry" />
        </mxCell>
        <mxCell id="7xaUz0W__pk1_LDY4TNP-181" value="" style="rounded=0;whiteSpace=wrap;html=1;rotation=90;" vertex="1" parent="7xaUz0W__pk1_LDY4TNP-174">
          <mxGeometry x="88" y="-7" width="10" height="30" as="geometry" />
        </mxCell>
        <mxCell id="7xaUz0W__pk1_LDY4TNP-201" value="" style="curved=1;endArrow=none;html=1;rounded=0;dashed=1;strokeColor=#FF0000;endFill=0;" edge="1" parent="7xaUz0W__pk1_LDY4TNP-174">
          <mxGeometry width="50" height="50" relative="1" as="geometry">
            <mxPoint x="20" y="39" as="sourcePoint" />
            <mxPoint x="54" y="-4" as="targetPoint" />
            <Array as="points">
              <mxPoint x="20" y="-1" />
            </Array>
          </mxGeometry>
        </mxCell>
        <mxCell id="7xaUz0W__pk1_LDY4TNP-160" value="EPAL" style="rounded=0;whiteSpace=wrap;html=1;" vertex="1" parent="1">
          <mxGeometry x="550" y="230" width="40" height="60" as="geometry" />
        </mxCell>
        <mxCell id="7xaUz0W__pk1_LDY4TNP-182" value="&lt;div&gt;t=10&lt;/div&gt;&lt;div&gt;X&lt;br&gt;&lt;/div&gt;" style="text;html=1;align=center;verticalAlign=middle;whiteSpace=wrap;rounded=0;fontColor=#FF0000;" vertex="1" parent="1">
          <mxGeometry x="513" y="237" width="20" height="30" as="geometry" />
        </mxCell>
        <mxCell id="7xaUz0W__pk1_LDY4TNP-183" value="dwn_dir" style="rounded=0;html=1;fontFamily=Helvetica;align=right;fillColor=#d5e8d4;strokeColor=#82b366;fontSize=11;" vertex="1" parent="1">
          <mxGeometry x="499" y="570" width="41" height="20" as="geometry" />
        </mxCell>
        <mxCell id="7xaUz0W__pk1_LDY4TNP-192" value="&lt;div&gt;Hint: &lt;span style=&quot;font-weight: normal;&quot;&gt;After the collo is seperate from the vehicle, the tagging depends on where the smartpouch is located on.&amp;nbsp;&lt;/span&gt;&lt;/div&gt;&lt;div&gt;&lt;span style=&quot;font-weight: normal;&quot;&gt;If the smartpouch device is inside the collo, no vehicle type is tagged until the next pickup. Tagging the flooring is okay! (see coloured tags to the right of the gray line) Vehicles passing next to the collo are now tagged as surrounding events &quot;surnd_evt&quot;.&lt;/span&gt;&lt;/div&gt;&lt;div&gt;&lt;span style=&quot;font-weight: normal;&quot;&gt;&lt;br&gt;&lt;/span&gt;&lt;/div&gt;&lt;div&gt;&lt;span style=&quot;font-weight: normal;&quot;&gt;If the smartpouch is mounted at the forklift instead, the tagging follows the scheme shown in the gray tags below the coloured ones. &lt;/span&gt;&lt;/div&gt;&lt;div&gt;&lt;span style=&quot;font-weight: normal;&quot;&gt;&lt;/span&gt;&lt;/div&gt;" style="text;html=1;align=left;verticalAlign=top;whiteSpace=wrap;rounded=0;fontStyle=1;fillColor=#f5f5f5;strokeColor=#FF0000;fontColor=#333333;" vertex="1" parent="1">
          <mxGeometry x="110" y="630" width="700" height="80" as="geometry" />
        </mxCell>
        <mxCell id="7xaUz0W__pk1_LDY4TNP-154" value="" style="endArrow=classic;dashed=1;html=1;rounded=0;fontColor=#FF0000;strokeColor=#FF0000;endFill=1;" edge="1" parent="1">
          <mxGeometry width="50" height="50" relative="1" as="geometry">
            <mxPoint x="182" y="259" as="sourcePoint" />
            <mxPoint x="525" y="258" as="targetPoint" />
          </mxGeometry>
        </mxCell>
        <mxCell id="7xaUz0W__pk1_LDY4TNP-204" value="" style="endArrow=none;dashed=1;html=1;rounded=0;strokeColor=#FF0000;startArrow=classic;startFill=1;" edge="1" parent="1">
          <mxGeometry width="50" height="50" relative="1" as="geometry">
            <mxPoint x="490" y="360" as="sourcePoint" />
            <mxPoint x="490" y="300" as="targetPoint" />
            <Array as="points">
              <mxPoint x="490" y="330" />
            </Array>
          </mxGeometry>
        </mxCell>
        <mxCell id="7xaUz0W__pk1_LDY4TNP-215" value="X &amp;nbsp; &amp;nbsp; &amp;nbsp;&amp;nbsp; t=11.5-12" style="text;html=1;align=left;verticalAlign=middle;whiteSpace=wrap;rounded=0;fontColor=#FF0000;" vertex="1" parent="1">
          <mxGeometry x="483" y="349" width="100" height="30" as="geometry" />
        </mxCell>
        <mxCell id="7xaUz0W__pk1_LDY4TNP-216" value="" style="endArrow=classic;dashed=1;html=1;rounded=0;endFill=1;strokeColor=#FF0000;" edge="1" parent="1">
          <mxGeometry width="50" height="50" relative="1" as="geometry">
            <mxPoint x="488" y="358" as="sourcePoint" />
            <mxPoint x="489" y="182" as="targetPoint" />
          </mxGeometry>
        </mxCell>
        <mxCell id="7xaUz0W__pk1_LDY4TNP-217" value="X &amp;nbsp; &amp;nbsp; &amp;nbsp;&amp;nbsp; t=15" style="text;html=1;align=left;verticalAlign=middle;whiteSpace=wrap;rounded=0;fontColor=#FF0000;" vertex="1" parent="1">
          <mxGeometry x="483" y="190" width="100" height="30" as="geometry" />
        </mxCell>
        <mxCell id="7xaUz0W__pk1_LDY4TNP-218" value="idl_mov" style="rounded=0;whiteSpace=wrap;html=1;fontFamily=Helvetica;align=left;fillColor=#f8cecc;strokeColor=#b85450;fontSize=11;" vertex="1" parent="1">
          <mxGeometry x="540" y="510" width="240" height="10" as="geometry" />
        </mxCell>
        <mxCell id="7xaUz0W__pk1_LDY4TNP-219" value="conc_flo" style="rounded=0;whiteSpace=wrap;html=1;fontFamily=Helvetica;align=left;fillColor=#e1d5e7;strokeColor=#9673a6;fontSize=11;" vertex="1" parent="1">
          <mxGeometry x="541" y="480" width="239" height="10" as="geometry" />
        </mxCell>
        <mxCell id="7xaUz0W__pk1_LDY4TNP-220" value="conc_flo" style="rounded=0;whiteSpace=wrap;html=1;fontFamily=Helvetica;align=left;fillColor=#f5f5f5;strokeColor=#666666;fontSize=11;fontColor=#333333;" vertex="1" parent="1">
          <mxGeometry x="541" y="490" width="239" height="10" as="geometry" />
        </mxCell>
        <mxCell id="7xaUz0W__pk1_LDY4TNP-221" value="acc" style="rounded=0;whiteSpace=wrap;html=1;fontFamily=Helvetica;align=left;fillColor=#f5f5f5;strokeColor=#666666;fontSize=11;fontColor=#333333;" vertex="1" parent="1">
          <mxGeometry x="540" y="520" width="40" height="10" as="geometry" />
        </mxCell>
        <mxCell id="7xaUz0W__pk1_LDY4TNP-222" value="dec" style="rounded=0;whiteSpace=wrap;html=1;fontFamily=Helvetica;align=left;fillColor=#f5f5f5;strokeColor=#666666;fontSize=11;fontColor=#333333;" vertex="1" parent="1">
          <mxGeometry x="580" y="520" width="20" height="10" as="geometry" />
        </mxCell>
        <mxCell id="7xaUz0W__pk1_LDY4TNP-223" value="acc" style="rounded=0;whiteSpace=wrap;html=1;fontFamily=Helvetica;align=left;fillColor=#f5f5f5;strokeColor=#666666;fontSize=11;fontColor=#333333;" vertex="1" parent="1">
          <mxGeometry x="600" y="520" width="20" height="10" as="geometry" />
        </mxCell>
        <mxCell id="7xaUz0W__pk1_LDY4TNP-224" value="surnd_evt" style="rounded=0;html=1;fontFamily=Helvetica;align=left;fillColor=#d5e8d4;strokeColor=#82b366;fontSize=11;" vertex="1" parent="1">
          <mxGeometry x="660" y="570" width="41" height="10" as="geometry" />
        </mxCell>
        <mxCell id="7xaUz0W__pk1_LDY4TNP-225" value="crus_mov" style="rounded=0;whiteSpace=wrap;html=1;fontFamily=Helvetica;align=left;fillColor=#f5f5f5;strokeColor=#666666;fontSize=11;fontColor=#333333;" vertex="1" parent="1">
          <mxGeometry x="620" y="520" width="160" height="10" as="geometry" />
        </mxCell>
        <mxCell id="7xaUz0W__pk1_LDY4TNP-226" value="forw_dir" style="rounded=0;whiteSpace=wrap;html=1;fontFamily=Helvetica;align=left;fillColor=#f5f5f5;strokeColor=#666666;fontSize=11;fontColor=#333333;" vertex="1" parent="1">
          <mxGeometry x="600" y="550" width="180" height="10" as="geometry" />
        </mxCell>
        <mxCell id="7xaUz0W__pk1_LDY4TNP-227" value="forkl_veh" style="rounded=0;whiteSpace=wrap;html=1;fontFamily=Helvetica;align=left;fillColor=#dae8fc;strokeColor=#6c8ebf;fontSize=11;" vertex="1" parent="1">
          <mxGeometry x="541" y="460" width="239" height="10" as="geometry" />
        </mxCell>
        <mxCell id="7xaUz0W__pk1_LDY4TNP-228" value="forw_dir" style="rounded=0;whiteSpace=wrap;html=1;fontFamily=Helvetica;align=left;fillColor=#ffe6cc;strokeColor=#d79b00;fontSize=11;" vertex="1" parent="1">
          <mxGeometry x="340" y="540" width="160" height="20" as="geometry" />
        </mxCell>
        <mxCell id="7xaUz0W__pk1_LDY4TNP-229" value="counw_dir" style="rounded=0;whiteSpace=wrap;html=1;fontFamily=Helvetica;align=left;fillColor=#f5f5f5;strokeColor=#666666;fontSize=11;fontColor=#333333;" vertex="1" parent="1">
          <mxGeometry x="540" y="550" width="60" height="10" as="geometry" />
        </mxCell>
        <mxCell id="7xaUz0W__pk1_LDY4TNP-230" value="dr-out_evt" style="rounded=0;html=1;fontFamily=Helvetica;align=left;fillColor=#d5e8d4;strokeColor=#82b366;fontSize=11;" vertex="1" parent="1">
          <mxGeometry x="541" y="570" width="41" height="10" as="geometry" />
        </mxCell>
        <mxCell id="7xaUz0W__pk1_LDY4TNP-231" value="dr-out_evt" style="rounded=0;html=1;fontFamily=Helvetica;align=left;fillColor=#f5f5f5;strokeColor=#666666;fontSize=11;fontColor=#333333;" vertex="1" parent="1">
          <mxGeometry x="541" y="580" width="41" height="10" as="geometry" />
        </mxCell>
      </root>
    </mxGraphModel>
  </diagram>
</mxfile>
